<mxfile host="app.diagrams.net" modified="2023-06-27T04:25:33.424Z" agent="Mozilla/5.0 (Macintosh; Intel Mac OS X 10_15_7) AppleWebKit/537.36 (KHTML, like Gecko) Chrome/114.0.0.0 Safari/537.36" etag="6AU9qJiC2imDPlw4KBob" version="21.5.0" type="github">
  <diagram name="Page-1" id="adUNEQPpcq7sUkXc-yeb">
    <mxGraphModel dx="1434" dy="802" grid="1" gridSize="10" guides="1" tooltips="1" connect="1" arrows="1" fold="1" page="1" pageScale="1" pageWidth="850" pageHeight="1100" math="0" shadow="0">
      <root>
        <mxCell id="0" />
        <mxCell id="1" parent="0" />
        <mxCell id="s6rxHli3kEFU-uxdiYRl-1" value="" style="rounded=0;whiteSpace=wrap;html=1;fillColor=#f5f5f5;fontColor=#333333;strokeColor=#666666;fontFamily=Times New Roman;" vertex="1" parent="1">
          <mxGeometry x="200" y="80" width="800" height="600" as="geometry" />
        </mxCell>
        <mxCell id="s6rxHli3kEFU-uxdiYRl-2" value="&lt;font style=&quot;font-size: 16px;&quot;&gt;terraform-hybrid repo&lt;/font&gt;" style="rounded=1;whiteSpace=wrap;html=1;fillColor=#fff2cc;strokeColor=#d6b656;shadow=0;fontFamily=Times New Roman;" vertex="1" parent="1">
          <mxGeometry x="275" y="590" width="650" height="60" as="geometry" />
        </mxCell>
        <mxCell id="s6rxHli3kEFU-uxdiYRl-3" value="&lt;font style=&quot;font-size: 16px;&quot;&gt;Merge Request&lt;/font&gt;" style="rounded=1;whiteSpace=wrap;html=1;fillColor=#cce5ff;strokeColor=#36393d;fontFamily=Times New Roman;" vertex="1" parent="1">
          <mxGeometry x="350" y="450" width="500" height="60" as="geometry" />
        </mxCell>
        <mxCell id="s6rxHli3kEFU-uxdiYRl-4" value="" style="endArrow=classic;html=1;rounded=0;exitX=0.5;exitY=0;exitDx=0;exitDy=0;entryX=0.5;entryY=1;entryDx=0;entryDy=0;fontFamily=Times New Roman;" edge="1" parent="1" target="s6rxHli3kEFU-uxdiYRl-3">
          <mxGeometry width="50" height="50" relative="1" as="geometry">
            <mxPoint x="600" y="590" as="sourcePoint" />
            <mxPoint x="600" y="550" as="targetPoint" />
          </mxGeometry>
        </mxCell>
        <mxCell id="s6rxHli3kEFU-uxdiYRl-5" value="&lt;font style=&quot;font-size: 16px;&quot;&gt;atlancis&lt;/font&gt;" style="rounded=1;whiteSpace=wrap;html=1;fillColor=#d5e8d4;strokeColor=#82b366;fontFamily=Times New Roman;" vertex="1" parent="1">
          <mxGeometry x="350" y="310" width="500" height="60" as="geometry" />
        </mxCell>
        <mxCell id="s6rxHli3kEFU-uxdiYRl-6" value="&lt;font style=&quot;font-size: 16px;&quot;&gt;cloud provider&lt;/font&gt;" style="ellipse;shape=cloud;whiteSpace=wrap;html=1;fontFamily=Times New Roman;fillColor=#1ba1e2;strokeColor=#006EAF;fontColor=#ffffff;" vertex="1" parent="1">
          <mxGeometry x="520" y="90" width="160" height="100" as="geometry" />
        </mxCell>
      </root>
    </mxGraphModel>
  </diagram>
</mxfile>
